name c:\Users\T11648sTb\Documents\VSCODE\Pred_Sim_Sprinting\Pred_Sim_Sprinting\MainFunctions\ExperimentalData\IK_Splined\Splined_100_meshInts_p02_maxVel_01.mot
datacolumns 38
datarows 10
range 0.16913131 0.17400388
endheader
                time	/jointset/ground_pelvis/pelvis_tilt/value	/jointset/ground_pelvis/pelvis_list/value	/jointset/ground_pelvis/pelvis_rotation/value	/jointset/ground_pelvis/pelvis_tx/value	/jointset/ground_pelvis/pelvis_ty/value	/jointset/ground_pelvis/pelvis_tz/value	/jointset/hip_r/hip_flexion_r/value	/jointset/hip_r/hip_adduction_r/value	/jointset/hip_r/hip_rotation_r/value	/jointset/knee_r/knee_angle_r/value	/jointset/ankle_r/ankle_angle_r/value	/jointset/subtalar_r/subtalar_angle_r/value	/jointset/mtp_r/mtp_angle_r/value	/jointset/hip_l/hip_flexion_l/value	/jointset/hip_l/hip_adduction_l/value	/jointset/hip_l/hip_rotation_l/value	/jointset/knee_l/knee_angle_l/value	/jointset/ankle_l/ankle_angle_l/value	/jointset/subtalar_l/subtalar_angle_l/value	/jointset/mtp_l/mtp_angle_l/value	/jointset/back/lumbar_extension/value	/jointset/back/lumbar_bending/value	/jointset/back/lumbar_rotation/value	/jointset/acromial_r/arm_flex_r/value	/jointset/acromial_r/arm_add_r/value	/jointset/acromial_r/arm_rot_r/value	/jointset/elbow_r/elbow_flex_r/value	/jointset/radioulnar_r/pro_sup_r/value	/jointset/radius_hand_r/wrist_flex_r/value	/jointset/radius_hand_r/wrist_dev_r/value	/jointset/acromial_l/arm_flex_l/value	/jointset/acromial_l/arm_add_l/value	/jointset/acromial_l/arm_rot_l/value	/jointset/elbow_l/elbow_flex_l/value	/jointset/radioulnar_l/pro_sup_l/value	/jointset/radius_hand_l/wrist_flex_l/value	/jointset/radius_hand_l/wrist_dev_l/value	
          0.16913131	         -6.15764163	          8.51740687	          0.52812990	         -0.72778607	          0.96991312	          0.30628794	        -22.03515885	         -8.07800906	         -4.36927905	        -28.51498316	        -39.13807099	        -10.97677820	         -0.82558384	         85.51093557	          8.82476611	         -4.88351369	        -86.51744396	         -4.10399225	        -11.11036267	          6.36260629	          1.17736636	        -15.29921168	         -1.58807373	         48.42825654	         -8.65076866	         34.52374555	        139.13170062	         61.42740903	        -17.95214983	         14.96426708	        -82.72653838	          0.05593529	        -50.12058279	         63.25923397	         65.93326773	          7.01712590	         23.49140661	
          0.16947863	         -6.18977818	          8.49131717	          0.60661701	         -0.72439725	          0.97008635	          0.30626580	        -22.02017146	         -8.00498269	         -4.36262345	        -28.70114538	        -39.13607541	        -10.73654818	         -0.81282268	         85.44094565	          8.88815764	         -4.78574423	        -86.08686378	         -4.13519552	        -11.10946954	          6.31929305	          1.19435938	        -15.29871120	         -1.63512253	         48.43172591	         -8.68587472	         34.49906507	        139.30432242	         61.41572086	        -17.96908766	         14.96712888	        -82.69349660	          0.09285981	        -50.21223555	         63.29639739	         65.84257811	          7.02985175	         23.49412758	
          0.17057600	         -6.28320028	          8.40803036	          0.84364320	         -0.71371151	          0.97065004	          0.30621038	        -21.96314458	         -7.77816196	         -4.34080426	        -29.31657655	        -39.09234332	         -9.98783657	         -0.74895776	         85.19647884	          9.07665137	         -4.47479974	        -84.71700081	         -4.23545700	        -11.09263010	          6.18725356	          1.23525938	        -15.29746075	         -1.77464993	         48.42509800	         -8.79969221	         34.41300479	        139.84575790	         61.37526336	        -18.01963462	         14.97629196	        -82.57157524	          0.20358399	        -50.49627409	         63.41029735	         65.56025796	          7.06900205	         23.50186604	
          0.17137131	         -6.34322620	          8.34721256	          1.00539955	         -0.70598637	          0.97107350	          0.30618314	        -21.91300913	         -7.61806096	         -4.32574300	        -29.78796616	        -39.02840704	         -9.45845708	         -0.68292048	         84.99740567	          9.20255693	         -4.24768089	        -83.71547034	         -4.30968522	        -11.06733872	          6.09628609	          1.25286434	        -15.29719120	         -1.86725665	         48.40350582	         -8.88540881	         34.34387523	        140.23437994	         61.34194189	        -18.05356078	         14.98302989	        -82.46695015	          0.27801501	        -50.69681413	         63.48992567	         65.35961759	          7.09648852	         23.50671098	
          0.17139394	         -6.34483973	          8.34548045	          1.00988215	         -0.70576682	          0.97108572	          0.30618252	        -21.91147852	         -7.61356488	         -4.32533956	        -29.80168346	        -39.02622632	         -9.44359563	         -0.68082629	         84.99147558	          9.20601250	         -4.24119955	        -83.68687213	         -4.31181597	        -11.06646063	          6.09375789	          1.25321833	        -15.29719475	         -1.86978817	         48.40268420	         -8.88789211	         34.34183506	        140.24538951	         61.34093789	        -18.05449385	         14.98322259	        -82.46377761	          0.28005921	        -50.70245352	         63.49215960	         65.35395788	          7.09726082	         23.50683998	
          0.17174125	         -6.36895480	          8.31889517	          1.07787900	         -0.70239822	          0.97127457	          0.30617392	        -21.88727650	         -7.54498260	         -4.31938722	        -30.01435069	        -38.99038691	         -9.21700707	         -0.64730017	         84.89860881	          9.25820037	         -4.14157976	        -83.24716657	         -4.34465375	        -11.05189095	          6.05537205	          1.25763735	        -15.29734146	         -1.90793802	         48.38862908	         -8.92634247	         34.31004876	        140.41406413	         61.32510867	        -18.06859863	         14.98618668	        -82.41373474	          0.31092090	        -50.78855902	         63.52625100	         65.26741522	          7.10905360	         23.50876096	
          0.17283863	         -6.43711482	          8.23514183	          1.28297317	         -0.69177269	          0.97188568	          0.30615853	        -21.80234929	         -7.33397808	         -4.30450465	        -30.71190861	        -38.85028721	         -8.52239162	         -0.52613073	         84.58268019	          9.41286857	         -3.82530134	        -81.84914120	         -4.44999452	        -10.99259020	          5.93939458	          1.25915848	        -15.29913250	         -2.01983835	         48.32637662	         -9.05223953	         34.20445445	        140.94299371	         61.26952491	        -18.11055918	         14.99561288	        -82.23930840	          0.40195705	        -51.05491188	         63.63181825	         64.99806698	          7.14562823	         23.51413780	
          0.17363394	         -6.47892242	          8.17487414	          1.42273607	         -0.68408768	          0.97234155	          0.30615777	        -21.73317111	         -7.18679930	         -4.29856804	        -31.24117476	        -38.72677588	         -8.04259190	         -0.42641556	         84.33266870	          9.51568640	         -3.59470895	        -80.82797170	         -4.52777054	        -10.93743307	          5.86048737	          1.24858272	        -15.30185850	         -2.09291797	         48.26434548	         -9.14809361	         34.12393810	        141.32239598	         61.22346336	        -18.13864081	         15.00246943	        -82.09785743	          0.46171911	        -51.24247060	         63.70681838	         64.80667475	          7.17159365	         23.51743140	
          0.17365657	         -6.48001891	          8.17316662	          1.42660707	         -0.68386923	          0.97235467	          0.30615786	        -21.73111355	         -7.18268593	         -4.29846975	        -31.25651703	        -38.72302950	         -8.02926768	         -0.42345941	         84.32530087	          9.51850184	         -3.58813242	        -80.79882597	         -4.52999991	        -10.93571894	          5.85830682	          1.24813974	        -15.30195504	         -2.09490042	         48.26237333	         -9.15088164	         34.12160804	        141.33313977	         61.22207711	        -18.13941267	         15.00266442	        -82.09365326	          0.46334239	        -51.24773850	         63.70893934	         64.80127589	          7.17232682	         23.51751826	
          0.17400388	         -6.49620674	          8.14701270	          1.48531346	         -0.68051718	          0.97255710	          0.30616017	        -21.69892681	         -7.12007096	         -4.29749770	        -31.49397203	        -38.66406677	         -7.82715190	         -0.37736795	         84.21044839	          9.56097595	         -3.48707153	        -80.35080102	         -4.56433276	        -10.90842119	          5.82528614	          1.24035958	        -15.30357465	         -2.12466873	         48.23066318	         -9.19412001	         34.08560854	        141.49770376	         61.20025149	        -18.15107962	         15.00565549	        -82.02789047	          0.48772374	        -51.32812576	         63.74143218	         64.71872019	          7.18354743	         23.51880658	
